<?xml version="1.0" encoding="ISO-8859-1" standalone="no"?><svg xmlns="http://www.w3.org/2000/svg" xmlns:xlink="http://www.w3.org/1999/xlink" version="1.1" height="100" width="100"  >
<rect x="0" y="0" height="100%" width="100%" style="fill:white; stroke-width:1; stroke:black; "  />
<polyline points="10,10 10.3125,10.0 10.9375,10.0 11.875,10.0 13.125,10.0 14.6875,10.0 16.5625,10.0 18.75,10.0 21.25,10.0 24.0625,10.0 27.1875,10.0 30.625,10.0 34.375,10.0 38.4375,10.0 42.8125,10.0 47.5,10.0 52.5,10.0 57.1875,10.3125 61.5625,10.9375 65.625,11.875 69.375,13.125 72.8125,14.6875 75.9375,16.5625 78.75,18.75 81.25,21.25 83.4375,24.0625 85.3125,27.1875 86.875,30.625 88.125,34.375 89.0625,38.4375 89.6875,42.8125 90.0,47.5 90.0,52.5 89.6875,57.1875 89.0625,61.5625 88.125,65.625 86.875,69.375 85.3125,72.8125 83.4375,75.9375 81.25,78.75 78.75,81.25 75.9375,83.4375 72.8125,85.3125 69.375,86.875 65.625,88.125 61.5625,89.0625 57.1875,89.6875 52.5,90.0 47.5,90.0 42.8125,90.0 38.4375,90.0 34.375,90.0 30.625,90.0 27.1875,90.0 24.0625,90.0 21.25,90.0 18.75,90.0 16.5625,90.0 14.6875,90.0 13.125,90.0 11.875,90.0 10.9375,90.0 10.3125,90.0 10,90 " style="fill:none; stroke-width:1; stroke:blue; "  />
</svg>
