<?xml version="1.0" encoding="ISO-8859-1" standalone="no"?><svg xmlns="http://www.w3.org/2000/svg" xmlns:xlink="http://www.w3.org/1999/xlink" version="1.1" height="100" width="100"  >
<rect x="0" y="0" height="100%" width="100%" style="fill:white; stroke-width:1; stroke:black; "  />
<polyline points="10,10 11.25,10.0 13.75,10.0 17.5,10.0 22.5,10.0 28.75,10.0 36.25,10.0 45.0,10.0 55.0,10.0 63.75,11.25 71.25,13.75 77.5,17.5 82.5,22.5 86.25,28.75 88.75,36.25 90.0,45.0 90.0,55.0 88.75,63.75 86.25,71.25 82.5,77.5 77.5,82.5 71.25,86.25 63.75,88.75 55.0,90.0 45.0,90.0 36.25,90.0 28.75,90.0 22.5,90.0 17.5,90.0 13.75,90.0 11.25,90.0 10,90 " style="fill:none; stroke-width:1; stroke:blue; "  />
</svg>
